PathFileType	4	(X/Y/Z)	RBDS013static.trc
DataRate	CameraRate	NumFrames	NumMarkers	Units	OrigDataRate	OrigDataStartFrame	OrigNumFrames
150.000000	150.000000	4	48	mm	150.000000	131	150
Frame#	Time	L.Ankle			L.Ankle.Medial			L.ASIS			L.GTR			L.Heel.Bottom			L.Heel.Lateral			L.Heel.Top			L.HF			L.Iliac.Crest			L.Knee			L.Knee.Medial			L.MT1			L.MT2			L.MT5			L.PSIS			L.Shank.Bottom.Lateral			L.Shank.Bottom.Medial			L.Shank.Top.Lateral			L.Shank.Top.Medial			L.Thigh.Bottom.Lateral			L.Thigh.Bottom.Medial			L.Thigh.Top.Lateral			L.Thigh.Top.Medial			L.TT			R.Ankle			R.Ankle.Medial			R.ASIS			R.GTR			R.Heel.Bottom			R.Heel.Lateral			R.Heel.Top			R.HF			R.Iliac.Crest			R.Knee			R.Knee.Medial			R.MT1			R.MT2			R.MT5			R.PSIS			R.Shank.Bottom.Lateral			R.Shank.Bottom.Medial			R.Shank.Top.Lateral			R.Shank.Top.Medial			R.Thigh.Bottom.Lateral			R.Thigh.Bottom.Medial			R.Thigh.Top.Lateral			R.Thigh.Top.Medial			R.TT			
		X1	Y1	Z1	X2	Y2	Z2	X3	Y3	Z3	X4	Y4	Z4	X5	Y5	Z5	X6	Y6	Z6	X7	Y7	Z7	X8	Y8	Z8	X9	Y9	Z9	X10	Y10	Z10	X11	Y11	Z11	X12	Y12	Z12	X13	Y13	Z13	X14	Y14	Z14	X15	Y15	Z15	X16	Y16	Z16	X17	Y17	Z17	X18	Y18	Z18	X19	Y19	Z19	X20	Y20	Z20	X21	Y21	Z21	X22	Y22	Z22	X23	Y23	Z23	X24	Y24	Z24	X25	Y25	Z25	X26	Y26	Z26	X27	Y27	Z27	X28	Y28	Z28	X29	Y29	Z29	X30	Y30	Z30	X31	Y31	Z31	X32	Y32	Z32	X33	Y33	Z33	X34	Y34	Z34	X35	Y35	Z35	X36	Y36	Z36	X37	Y37	Z37	X38	Y38	Z38	X39	Y39	Z39	X40	Y40	Z40	X41	Y41	Z41	X42	Y42	Z42	X43	Y43	Z43	X44	Y44	Z44	X45	Y45	Z45	X46	Y46	Z46	X47	Y47	Z47	X48	Y48	Z48	

132	0.8733333333333334	705.5759887695313	102.9586410522461	1048.646728515625	723.5963745117188	115.4901580810547	1129.926513671875	814.891357421875	938.329833984375	1112.330444335938	736.4782104492188	849.5437622070313	1064.96826171875	632.9589233398438	40.17104721069336	1092.467651367188	656.4203491210938	64.29425811767578	1051.206298828125	641.713623046875	87.42122650146484	1091.974731445313	743.5478515625	437.3441467285156	1058.2587890625	757.59228515625	1002.027954101563	1082.212890625	746.5584716796875	493.6603393554688	1062.276977539063	737.57568359375	479.4851379394531	1183.455078125	842.3362426757813	60.05805587768555	1128.702270507813	853.9026489257813	71.78414916992188	1086.136352539063	814.5643920898438	44.34955596923828	1020.462707519531	653.841552734375	973.7438354492188	1184.95361328125	702.2675170898438	176.8026428222656	1044.722045898438	661.2844848632813	176.7363739013672	1081.920166015625	695.20849609375	257.1486206054688	1038.822509765625	656.6292114257813	257.5833740234375	1076.190795898438	765.2259521484375	592.7108154296875	1045.51904296875	699.4324340820313	589.9144287109375	1077.570678710938	754.075439453125	702.3214721679688	1039.939697265625	692.7047119140625	700.1383666992188	1071.104248046875	785.919189453125	414.69482421875	1099.898559570313	712.1203002929688	102.0035095214844	1413.493896484375	732.6243286132813	115.129280090332	1333.2021484375	823.6193237304688	940.7119750976563	1348.692016601563	755.7874755859375	851.4605712890625	1401.603759765625	638.3486938476563	40.591064453125	1370.620849609375	662.5479736328125	61.20631408691406	1410.362182617188	646.9882202148438	91.56970977783203	1369.826171875	747.2713012695313	436.770263671875	1406.693969726563	773.1422119140625	1003.68505859375	1380.20703125	743.2454833984375	501.4048461914063	1401.513549804688	743.1041259765625	479.5650634765625	1281.643920898438	845.3117065429688	58.99266052246094	1331.318603515625	852.3610229492188	77.72998809814453	1365.14404296875	819.2542114257813	52.12968826293945	1441.480712890625	654.9736938476563	974.7825317382813	1285.53662109375	700.4585571289063	172.8302459716797	1416.883911132813	664.7366943359375	174.6769866943359	1380.036499023438	696.3944702148438	257.4259948730469	1423.234008789063	658.896728515625	255.2089233398438	1384.61474609375	749.2743530273438	628.599609375	1418.82177734375	692.1090698242188	621.1528930664063	1372.716918945313	734.3115234375	737.2363891601563	1414.9716796875	681.0599975585938	731.0618286132813	1370.592529296875	787.8898315429688	413.1127624511719	1367.419677734375	
133	0.88	705.5654907226563	102.9631271362305	1048.644409179688	723.6077880859375	115.5002136230469	1129.9189453125	814.9104614257813	938.3231201171875	1112.342407226563	736.5086669921875	849.5377807617188	1064.970458984375	632.957763671875	40.18523788452148	1092.469360351563	656.4208984375	64.29965209960938	1051.212646484375	641.70849609375	87.42367553710938	1091.9794921875	743.5532836914063	437.3551025390625	1058.25732421875	757.6305541992188	1002.03369140625	1082.202270507813	746.560302734375	493.6737365722656	1062.268676757813	737.5668334960938	479.4820556640625	1183.449340820313	842.335205078125	60.05756378173828	1128.703979492188	853.9240112304688	71.89176177978516	1086.357421875	814.5742797851563	44.34336471557617	1020.471496582031	653.8684692382813	973.7527465820313	1184.9482421875	702.27294921875	176.8154754638672	1044.727416992188	661.2855834960938	176.740966796875	1081.920288085938	695.2135620117188	257.1529235839844	1038.824462890625	656.6317749023438	257.5904541015625	1076.188720703125	765.24072265625	592.7163696289063	1045.516967773438	699.4383544921875	589.911376953125	1077.560546875	754.093505859375	702.324951171875	1039.937622070313	692.7293090820313	700.1375122070313	1071.095947265625	785.9248657226563	414.690673828125	1099.896728515625	712.12255859375	101.9956359863281	1413.4794921875	732.61865234375	115.1274490356445	1333.203125	823.6310424804688	940.7096557617188	1348.695556640625	755.7905883789063	851.4791259765625	1401.6240234375	638.3573608398438	40.58768463134766	1370.613647460938	662.5538330078125	61.20039749145508	1410.3701171875	646.982177734375	91.56381225585938	1369.83203125	747.2675170898438	436.7726745605469	1406.690063476563	773.1661987304688	1003.678039550781	1380.206420898438	743.2421875	501.4043884277344	1401.506225585938	743.1019897460938	479.5656433105469	1281.65478515625	845.3185424804688	58.99675369262695	1331.31982421875	852.3662719726563	77.71616363525391	1365.146850585938	819.2496337890625	52.12367630004883	1441.4892578125	654.9838256835938	974.8009643554688	1285.544555664063	700.4568481445313	172.8270568847656	1416.881469726563	664.7373046875	174.6740264892578	1380.038940429688	696.3905029296875	257.4217224121094	1423.229858398438	658.8939208984375	255.211669921875	1384.610473632813	749.2698364257813	628.6044921875	1418.830444335938	692.104736328125	621.1738891601563	1372.72705078125	734.3263549804688	737.2364501953125	1414.9716796875	681.0778198242188	731.072265625	1370.589477539063	787.8897705078125	413.112548828125	1367.427978515625	
134	0.8866666666666667	705.562744140625	102.9575881958008	1048.648559570313	723.6038208007813	115.498420715332	1129.920532226563	814.9328002929688	938.32373046875	1112.356567382813	736.5313110351563	849.5451049804688	1064.974609375	632.9641723632813	40.17693710327148	1092.479614257813	656.4168701171875	64.29750061035156	1051.2177734375	641.7138671875	87.42279052734375	1091.978393554688	743.5556640625	437.3539428710938	1058.269409179688	757.670654296875	1002.040832519531	1082.208374023438	746.5659790039063	493.6555480957031	1062.294189453125	737.568359375	479.4765319824219	1183.452270507813	842.34521484375	60.04913711547852	1128.695434570313	853.9280395507813	71.88681030273438	1086.370971679688	814.5667724609375	44.35227584838867	1020.463195800781	653.8857421875	973.7679443359375	1184.942993164063	702.2666015625	176.8140411376953	1044.729125976563	661.2798461914063	176.7541046142578	1081.927978515625	695.212890625	257.1586608886719	1038.822143554688	656.627197265625	257.5888671875	1076.198974609375	765.2547607421875	592.7227783203125	1045.516967773438	699.4673461914063	589.9171142578125	1077.566284179688	754.1175537109375	702.3233032226563	1039.941040039063	692.751220703125	700.1478881835938	1071.09765625	785.925048828125	414.6844787597656	1099.896606445313	712.1240234375	102.0023651123047	1413.487060546875	732.619384765625	115.1248397827148	1333.201293945313	823.6605834960938	940.7067260742188	1348.693603515625	755.8123779296875	851.4705810546875	1401.6357421875	638.3547973632813	40.58108520507813	1370.616455078125	662.5535888671875	61.21088409423828	1410.370727539063	646.98095703125	91.56524658203125	1369.832885742188	747.2637939453125	436.74365234375	1406.698120117188	773.1837158203125	1003.671691894531	1380.212036132813	743.2311401367188	501.4097595214844	1401.514892578125	743.10693359375	479.5649719238281	1281.643188476563	845.3163452148438	59.00566482543945	1331.318481445313	852.3709106445313	77.71993255615234	1365.138793945313	819.2510986328125	52.12442016601563	1441.49072265625	655.0087280273438	974.8014526367188	1285.544677734375	700.4612426757813	172.8269958496094	1416.87548828125	664.7307739257813	174.6737823486328	1380.03271484375	696.3870239257813	257.4204406738281	1423.224609375	658.9008178710938	255.2140197753906	1384.616821289063	749.2735595703125	628.5995483398438	1418.830200195313	692.1051635742188	621.180908203125	1372.728881835938	734.3370971679688	737.237548828125	1414.975463867188	681.0819702148438	731.0869750976563	1370.594116210938	787.8848876953125	413.1155700683594	1367.429809570313	
135	0.8933333333333334	705.56591796875	102.968620300293	1048.640380859375	723.6062622070313	115.4975738525391	1129.928833007813	814.9520874023438	938.3192749023438	1112.367065429688	736.5757446289063	849.5372314453125	1064.98974609375	632.9544677734375	40.18802261352539	1092.479614257813	656.4185791015625	64.29219818115234	1051.217407226563	641.7089233398438	87.42531585693359	1091.976684570313	743.55615234375	437.3501892089844	1058.272583007813	757.7081909179688	1002.043334960938	1082.217529296875	746.5851440429688	493.6644287109375	1062.291015625	737.572021484375	479.4878540039063	1183.449829101563	842.3363647460938	60.0526008605957	1128.709350585938	853.9251708984375	71.885986328125	1086.365844726563	814.5670776367188	44.34458160400391	1020.470092773438	653.9053344726563	973.7694091796875	1184.942749023438	702.2687377929688	176.8091125488281	1044.73779296875	661.28125	176.7477416992188	1081.933837890625	695.2130126953125	257.1565551757813	1038.827392578125	656.6342163085938	257.59423828125	1076.197509765625	765.2864379882813	592.7191772460938	1045.520141601563	699.4906005859375	589.9234619140625	1077.552001953125	754.1421508789063	702.3258056640625	1039.94384765625	692.7705078125	700.135009765625	1071.102416992188	785.9430541992188	414.6926574707031	1099.89453125	712.1300048828125	102.0052108764648	1413.482666015625	732.6226196289063	115.1251220703125	1333.199584960938	823.6683959960938	940.7055053710938	1348.714477539063	755.8153076171875	851.466796875	1401.63330078125	638.3535766601563	40.58693695068359	1370.626708984375	662.558349609375	61.20501708984375	1410.367797851563	646.9835815429688	91.56007385253906	1369.8271484375	747.2660522460938	436.7713928222656	1406.706909179688	773.2037353515625	1003.665771484375	1380.208251953125	743.2313842773438	501.4070129394531	1401.516845703125	743.1093139648438	479.5782165527344	1281.661376953125	845.3175048828125	58.99154281616211	1331.331298828125	852.356689453125	77.72035980224609	1365.143920898438	819.2445678710938	52.12251663208008	1441.486938476563	655.0296020507813	974.80419921875	1285.533325195313	700.458984375	172.8209228515625	1416.873046875	664.7290649414063	174.6795196533203	1380.02587890625	696.3829956054688	257.4213256835938	1423.226196289063	658.8919067382813	255.21142578125	1384.611206054688	749.2767333984375	628.5997924804688	1418.8359375	692.1151733398438	621.1826171875	1372.728515625	734.347900390625	737.244384765625	1414.97607421875	681.1001586914063	731.0814819335938	1370.592529296875	787.8847045898438	413.1117553710938	1367.427490234375	
